<?xml version="1.0" encoding="UTF-8"?>
<svg width="12px" height="14px" viewBox="0 0 12 14" version="1.1" xmlns="http://www.w3.org/2000/svg" xmlns:xlink="http://www.w3.org/1999/xlink">
    <!-- Generator: Sketch 52.1 (67048) - http://www.bohemiancoding.com/sketch -->
    <title>编组 23</title>
    <desc>Created with Sketch.</desc>
    <g id="页面-1" stroke="none" stroke-width="1" fill="none" fill-rule="evenodd">
        <g id="语音识别/文本修改" transform="translate(-944.000000, -296.000000)">
            <g id="编组-19" transform="translate(846.000000, 293.000000)">
                <g id="编组-21" transform="translate(96.000000, 0.000000)">
                    <g id="编组-23" transform="translate(0.000000, 2.000000)">
                        <g id="导出" fill="#000000" fill-rule="nonzero">
                            <rect id="矩形" opacity="0" x="0" y="0" width="16" height="16"></rect>
                            <path d="M13.4208487,12.3300143 L12.6771129,11.8961644 C12.2644967,11.6558953 11.9265978,11.8503235 11.9265978,12.3283034 L11.9265978,12.3325565 L9.75312738,12.3325565 C9.51287427,12.3325565 9.31843009,12.5278321 9.31843009,12.7672538 C9.31843009,13.0083703 9.51285827,13.2019511 9.75312738,13.2019511 L11.9325457,13.2019511 C11.9486788,13.6553237 12.27724,13.8421091 12.6822135,13.6128725 L13.4157641,13.1968505 C13.83177,12.9608186 13.8334489,12.5702834 13.4208487,12.3300143 Z M11.9265978,14.0407584 C11.9240555,14.0407584 11.9215132,14.0416058 11.9198024,14.0416058 L3.38386173,14.0416058 C3.10539453,14.0416058 2.86936256,13.8675638 2.86936256,13.6612557 L2.86936256,4.47837767 L5.04283295,4.47837767 C5.76279283,4.47837767 6.3469088,3.89341428 6.3469088,3.17345441 L6.3469088,1.86937856 L11.9198024,1.86937856 C12.1982856,1.86937856 12.4325907,2.04426798 12.4325907,2.25059209 L12.4325907,11.4589248 L13.3019852,11.4589248 L13.3019852,2.25059211 C13.3019852,1.56118753 12.6821975,1.00000002 11.9198024,1.00000002 L6.3469088,1 L5.47753023,1 L5.16000152,1 L2,3.88917714 L2,13.6612557 C2,14.3497968 2.6197718,14.9110003 3.38387773,14.9110003 L11.9198024,14.9110003 C12.5344736,14.9110003 13.0506836,14.544241 13.2298262,14.0416058 L11.9265978,14.0416058 L11.9265978,14.0407584 Z M5.47753023,1.88805391 L5.47753023,3.17345441 C5.47753023,3.41289206 5.28225463,3.60815169 5.04283295,3.60815169 L3.59527041,3.60815169 L5.47753023,1.88805391 Z" id="形状" fill-opacity="0.65"></path>
                        </g>
                        <path d="M8.5,7.5 L8.5,10.5 C8.5,10.7761424 8.27614237,11 8,11 C7.72385763,11 7.5,10.7761424 7.5,10.5 L7.5,7.5 L6,7.5 C5.72385763,7.5 5.5,7.27614237 5.5,7 C5.5,6.72385763 5.72385763,6.5 6,6.5 L10,6.5 C10.2761424,6.5 10.5,6.72385763 10.5,7 C10.5,7.27614237 10.2761424,7.5 10,7.5 L8.5,7.5 Z" id="形状结合" fill="#595959"></path>
                    </g>
                </g>
            </g>
        </g>
    </g>
</svg>