<?xml version="1.0" encoding="UTF-8"?>
<svg width="14px" height="14px" viewBox="0 0 14 14" version="1.1" xmlns="http://www.w3.org/2000/svg" xmlns:xlink="http://www.w3.org/1999/xlink">
    <!-- Generator: Sketch 52.1 (67048) - http://www.bohemiancoding.com/sketch -->
    <title>重置</title>
    <desc>Created with Sketch.</desc>
    <g id="页面-1" stroke="none" stroke-width="1" fill="none" fill-rule="evenodd">
        <g id="语音识别/文本修改" transform="translate(-847.000000, -296.000000)" fill-rule="nonzero">
            <g id="编组-19" transform="translate(846.000000, 293.000000)">
                <g id="编组-20">
                    <g id="重置" transform="translate(0.000000, 2.000000)">
                        <rect id="矩形" opacity="0" x="0" y="0" width="16" height="16"></rect>
                        <path d="M13.5607813,8.97125 C13.3043184,8.90397259 13.0418669,9.05730248 12.9745313,9.31375 C12.3807813,11.5767187 10.3290625,13.1575 7.98625,13.1575 C5.88188882,13.1552252 3.98911257,11.8770589 3.20078125,9.9259375 L4.1428125,9.9259375 L2.693125,7.99625 L1.2584375,9.9259375 L2.1784375,9.9259375 C2.19125,9.9646875 2.20442708,10.0032292 2.21796875,10.0415625 C3.08363405,12.4845581 5.39441594,14.1172594 7.98625,14.1171875 C10.7653125,14.1171875 13.1984375,12.2421875 13.9032813,9.5575 C13.9705587,9.30103719 13.8172288,9.03858566 13.5607813,8.97125 Z M2.404375,7.07140625 C2.5277698,7.10294226 2.65864121,7.08409496 2.76812291,7.0190215 C2.8776046,6.95394804 2.95670206,6.84799457 2.98796875,6.72453125 C3.56950945,4.43944452 5.62832655,2.84093127 7.98625,2.84375 C10.12375,2.84375 11.9953125,4.125 12.77375,6.078125 L11.8259375,6.078125 L13.275625,8.0078125 L14.7103125,6.078125 L13.795,6.078125 C12.9405084,3.49914478 10.4878956,1.79237882 7.77269772,1.88722279 C5.05749985,1.98206676 2.72995689,3.85580728 2.0575,6.488125 C1.99239081,6.74495554 2.14762384,7.00598476 2.404375,7.07140625 Z" id="形状" fill-opacity="0.65"></path>
                    </g>
                </g>
            </g>
        </g>
    </g>
</svg>
